<svg width="14" height="11" viewBox="0 0 14 11" fill="none" xmlns="http://www.w3.org/2000/svg">
<g clip-path="url(#clip0_104_981)">
<path d="M10.2126 3.51913C9.92086 3.26886 9.46728 2.93106 9.27431 3.6938C9.20869 3.95313 9.05537 4.15305 8.92399 4.31401C8.78237 3.75086 8.3563 3.16797 7.95484 2.77495C7.80462 2.62791 7.27158 2.04339 7.16917 1.0655C7.15389 0.919561 6.93325 0.851025 6.79525 0.949467C5.4764 1.89014 4.75251 3.18389 4.72563 4.64038C4.72563 4.64038 4.17646 4.27667 3.87811 3.60004C3.79777 3.41783 3.48687 3.38307 3.35199 3.54418C3.32609 3.57512 3.30209 3.6061 3.28043 3.63617C2.26289 5.04985 1.77341 6.76656 2.22592 8.3637C2.98252 11.0384 7.98735 11.7862 10.6369 10.1051C13.2293 8.46034 12.4052 5.39905 10.2126 3.51913Z" fill="#ED694A"/>
<path d="M2.93016 8.53188C2.48289 6.91765 2.95632 5.18422 3.94997 3.74842C3.92484 3.70079 3.90067 3.65153 3.87808 3.60031C3.79775 3.4181 3.48685 3.38334 3.35196 3.54445C3.32607 3.57539 3.30209 3.60637 3.28043 3.63645C2.26289 5.05012 1.77341 6.76683 2.22592 8.36398C2.57102 9.58399 3.80007 10.4028 5.28623 10.7734C4.12686 10.3322 3.21893 9.57572 2.93016 8.53188Z" fill="#D8553A"/>
<path d="M5.43235 4.61383C5.48728 3.29196 6.09579 2.10667 7.18489 1.19611C7.1774 1.14597 7.17184 1.10113 7.16826 1.0671C7.15265 0.919912 6.94008 0.846091 6.80268 0.943673C5.52887 1.84855 4.75247 3.12921 4.72461 4.6406L4.96302 4.78607C5.08043 4.85772 5.23952 4.8546 5.35166 4.78897C5.41857 4.74441 5.42816 4.67716 5.43235 4.61383Z" fill="#D8553A"/>
<path d="M9.41278 5.47507C9.19731 5.29022 8.86227 5.0407 8.71975 5.60408C8.6713 5.79562 8.55802 5.9433 8.46103 6.06219C8.35644 5.64624 8.04171 5.21569 7.7452 4.92541C7.63424 4.81681 7.24054 4.38508 7.16488 3.66276C7.15359 3.55495 6.99065 3.50435 6.88871 3.57705C5.91459 4.27184 5.37988 5.22746 5.36006 6.30323C5.36006 6.30323 4.95441 6.03459 4.73407 5.53482C4.67474 5.40024 4.44508 5.37457 4.34547 5.49357C4.32635 5.51641 4.30861 5.53931 4.29261 5.56152C3.54101 6.60568 3.17947 7.87367 3.5137 9.05338C4.07255 11.029 7.7692 11.5813 9.72625 10.3396C11.641 9.12477 11.0323 6.86365 9.41278 5.47507Z" fill="#F4A32C"/>
<path d="M4.21072 9.20788C3.9148 8.05468 4.2213 6.81729 4.87112 5.7869C4.8216 5.71071 4.77468 5.62649 4.73405 5.53437C4.67471 5.39979 4.44505 5.37409 4.34544 5.4931C4.32633 5.51593 4.30858 5.53884 4.29258 5.56107C3.54101 6.60524 3.1795 7.87322 3.51367 9.05291C3.7736 9.97175 4.71234 10.5825 5.83901 10.8483C5.03852 10.5329 4.40825 9.97871 4.21072 9.20788Z" fill="#E89528"/>
<path d="M8.68347 7.26007C8.53761 7.13494 8.31077 6.96601 8.2143 7.3474C8.18152 7.47708 8.10482 7.57703 8.03914 7.65751C7.96832 7.37591 7.75531 7.08447 7.55455 6.88798C7.47946 6.81446 7.21294 6.52221 7.1617 6.03324C7.15405 5.96026 7.04377 5.92599 6.97475 5.97524C6.31533 6.44557 5.95338 7.09247 5.93995 7.82068C5.93995 7.82068 5.66534 7.63881 5.51621 7.30052C5.47604 7.20943 5.32059 7.19205 5.25316 7.27259C5.2402 7.28804 5.22822 7.30355 5.21737 7.31859C4.70861 8.02543 4.46385 8.88377 4.6901 9.68236C5.0684 11.0197 7.57082 11.3936 8.8956 10.5531C9.34926 10.2652 9.63054 9.85961 9.68758 9.41095C9.77369 8.7314 9.44083 7.90943 8.68347 7.26007Z" fill="#F4D44E"/>
<path d="M8.00435 8.91618C7.92308 8.84646 7.79672 8.75236 7.74297 8.96482C7.7247 9.03707 7.68199 9.09276 7.64538 9.1376C7.60592 8.98072 7.48725 8.81834 7.37541 8.70888C7.33358 8.66791 7.18507 8.50508 7.15653 8.23268C7.15226 8.19201 7.09079 8.17295 7.05237 8.20034C6.68501 8.46239 6.48332 8.82279 6.47586 9.2285C6.47586 9.2285 6.32287 9.12718 6.23977 8.9387C6.21738 8.88793 6.13078 8.87824 6.09324 8.92314C6.08602 8.93176 6.07934 8.94039 6.07333 8.94877C5.78988 9.34258 5.65352 9.82078 5.77958 10.2657C6.06663 11.2804 8.41951 11.2497 8.56383 10.1145C8.61173 9.7359 8.42629 9.27793 8.00435 8.91618Z" fill="#EAE9E8"/>
<path d="M6.32587 10.4671C6.19982 10.0691 6.33618 9.64128 6.61963 9.28902C6.62564 9.28152 6.63234 9.27381 6.63953 9.2661C6.6771 9.22594 6.7637 9.2346 6.78607 9.28C6.86917 9.44861 7.02216 9.53925 7.02216 9.53925C7.02831 9.24105 7.16579 8.97034 7.41831 8.75322C7.36185 8.69178 7.18909 8.54362 7.15652 8.23268C7.15226 8.19201 7.09079 8.17295 7.05237 8.20034C6.68501 8.46239 6.48332 8.82279 6.47586 9.2285C6.47586 9.2285 6.32287 9.12718 6.23977 8.93872C6.2174 8.88795 6.13078 8.87826 6.09323 8.92316C6.08602 8.93178 6.07934 8.94041 6.07333 8.94879C5.78988 9.34258 5.65352 9.8208 5.77958 10.2657C5.89622 10.6781 6.37545 10.926 6.90526 10.9858C6.61946 10.8755 6.39981 10.7009 6.32587 10.4671Z" fill="#F7E7A1"/>
<path d="M5.04847 1.4619C5.63978 1.08402 5.63846 0.377029 5.04847 0C4.45716 0.377867 4.45844 1.08487 5.04847 1.4619Z" fill="#D8553A"/>
<path d="M12.1338 4.49511C12.7252 4.11722 12.7238 3.41023 12.1338 3.0332C11.8636 3.20589 11.5439 4.11808 12.1338 4.49511Z" fill="#D8553A"/>
<path d="M1.66192 4.78213C2.08807 4.50977 2.08714 4.00027 1.66192 3.72852C1.46715 3.85297 1.2367 4.5104 1.66192 4.78213Z" fill="#D8553A"/>
<path d="M9.04191 2.51553C9.46807 2.24317 9.46714 1.73367 9.04191 1.46191C8.61576 1.73425 8.61672 2.24379 9.04191 2.51553Z" fill="#D8553A"/>
<path d="M5.90311 6.13045C6.00097 5.22269 6.44216 4.41555 7.18296 3.80021C7.17547 3.75561 7.16915 3.70983 7.16423 3.66276C7.15293 3.55495 6.98999 3.50435 6.88806 3.57705C6.11614 4.12761 5.62073 4.8421 5.43823 5.65023L5.43796 5.65017C5.42443 5.71011 5.40764 5.79742 5.39703 5.86602C5.39705 5.86608 5.39708 5.86613 5.39714 5.86619C5.37496 6.00936 5.36211 6.15511 5.35938 6.30325C5.37999 6.30641 5.8467 6.49489 5.90311 6.13045Z" fill="#E89528"/>
<path d="M5.37202 9.87172C5.17091 9.12568 5.34219 8.33011 5.7401 7.64078C5.66301 7.55585 5.57866 7.44177 5.51623 7.30015C5.47604 7.20905 5.32062 7.19167 5.25316 7.27222C5.24023 7.28766 5.22819 7.30318 5.21737 7.31822C4.70861 8.02505 4.46386 8.8834 4.6901 9.68199C4.86728 10.3083 5.51033 10.7233 6.28008 10.9012C5.83203 10.6675 5.4931 10.3216 5.37202 9.87172Z" fill="#E8C842"/>
<path d="M6.66535 7.49467C6.73201 7.12031 6.92689 6.70783 7.23366 6.36299C7.20025 6.26562 7.17397 6.1556 7.16115 6.03324C7.15349 5.96026 7.04319 5.92599 6.9742 5.97524C6.56333 6.2683 6.26843 6.63006 6.10089 7.03716L6.10045 7.03708C6.07409 7.10104 6.03682 7.207 6.01424 7.29064C6.01443 7.29059 6.01462 7.29059 6.01481 7.29053C5.96855 7.4612 5.94282 7.63832 5.93945 7.82066C6.30838 7.85684 6.61356 7.78506 6.66535 7.49467Z" fill="#E8C842"/>
</g>
<defs>
<clipPath id="clip0_104_981">
<rect width="14" height="11" fill="white"/>
</clipPath>
</defs>
</svg>
