<svg width="43" height="40" viewBox="0 0 43 40" fill="none" xmlns="http://www.w3.org/2000/svg">
<g filter="url(#filter0_d_104_1007)">
<ellipse cx="21.3188" cy="15.8627" rx="17.3188" ry="15.8627" fill="white"/>
<path d="M21.3184 1C30.4153 1 37.6375 7.73489 37.6377 15.8623C37.6377 23.9899 30.4155 30.7256 21.3184 30.7256C12.2215 30.7254 5 23.9898 5 15.8623C5.00024 7.73503 12.2216 1.00023 21.3184 1Z" stroke="#33B8E8" stroke-width="2"/>
</g>
<path d="M23.1006 21.4834L23.0557 21.5166C23.1697 21.4291 23.2868 21.3371 23.4072 21.2422C23.3028 21.3247 23.2012 21.4061 23.1006 21.4834ZM23.7139 20.9971C23.6399 21.057 23.5667 21.116 23.4941 21.1738C23.5667 21.1163 23.6396 21.0569 23.7139 20.9971ZM28.167 16.6182C28.084 16.7338 28.0002 16.8433 27.9121 16.9463L27.8984 16.9619C27.8245 17.0561 27.7438 17.1517 27.6602 17.251C27.7516 17.1407 27.8416 17.0325 27.9258 16.9238L27.9561 16.8838L27.9678 16.8584C28.037 16.783 28.1039 16.7035 28.167 16.6182ZM28.5342 16.0215C28.4885 16.1086 28.442 16.1918 28.3945 16.2715C28.4397 16.1928 28.4838 16.1116 28.5254 16.0273L28.5342 16.0088V16.0215ZM28.8037 12.7656C28.9446 13.1857 29.0224 13.6354 29.0225 14.1035C29.0225 14.4885 28.9409 14.8503 28.8252 15.2803L28.8164 15.3096L28.8125 15.3408C28.8095 15.3621 28.8022 15.3905 28.7852 15.4385C28.779 15.4557 28.7513 15.5286 28.7305 15.5869L28.7227 15.6045C28.7066 15.637 28.6899 15.6696 28.6738 15.7021C28.6756 15.6973 28.6779 15.6925 28.6797 15.6875C28.6915 15.6602 28.7043 15.6329 28.7139 15.6064L28.7529 15.4893L28.7578 15.4707C28.757 15.474 28.757 15.4735 28.7598 15.4658C28.7652 15.4509 28.7651 15.4515 28.7764 15.4219C28.7865 15.3951 28.8163 15.3157 28.8262 15.2139C28.9197 14.851 29.0068 14.4739 29.0068 14.0645C29.0068 13.6111 28.935 13.1745 28.8037 12.7656ZM21.3027 11.9883C21.2961 12.0001 21.2888 12.0115 21.2822 12.0234C21.2151 11.9058 21.143 11.7926 21.0664 11.6836L21.3027 11.9883ZM19.8486 10.5361C19.8875 10.5601 19.9258 10.585 19.9639 10.6104C19.9257 10.5852 19.8876 10.56 19.8486 10.5361ZM19.6025 10.3955C19.664 10.4277 19.7244 10.4617 19.7842 10.4971C19.7243 10.462 19.6641 10.4275 19.6025 10.3955ZM16.9189 10.0127C17.1797 9.95961 17.4492 9.93166 17.7246 9.93164C18.376 9.93164 19.0084 10.0906 19.5732 10.3809C19.0134 10.0963 18.3858 9.94197 17.7285 9.94141H17.7246C17.4487 9.93903 17.1792 9.96288 16.9189 10.0127Z" fill="#FE7B5F" stroke="#33B8E8"/>
<defs>
<filter id="filter0_d_104_1007" x="0" y="0" width="42.6367" height="39.7256" filterUnits="userSpaceOnUse" color-interpolation-filters="sRGB">
<feFlood flood-opacity="0" result="BackgroundImageFix"/>
<feColorMatrix in="SourceAlpha" type="matrix" values="0 0 0 0 0 0 0 0 0 0 0 0 0 0 0 0 0 0 127 0" result="hardAlpha"/>
<feOffset dy="4"/>
<feGaussianBlur stdDeviation="2"/>
<feColorMatrix type="matrix" values="0 0 0 0 0.945098 0 0 0 0 0.945098 0 0 0 0 0.94902 0 0 0 1 0"/>
<feBlend mode="normal" in2="BackgroundImageFix" result="effect1_dropShadow_104_1007"/>
<feBlend mode="normal" in="SourceGraphic" in2="effect1_dropShadow_104_1007" result="shape"/>
</filter>
</defs>
</svg>
